ffmpeg version 8.0.1-essentials_build-www.gyan.dev Copyright (c) 2000-2025 the FFmpeg developers
  built with gcc 15.2.0 (Rev8, Built by MSYS2 project)
  configuration: --enable-gpl --enable-version3 --enable-static --disable-w32threads --disable-autodetect --enable-fontconfig --enable-iconv --enable-gnutls --enable-libxml2 --enable-gmp --enable-bzlib --enable-lzma --enable-zlib --enable-libsrt --enable-libssh --enable-libzmq --enable-avisynth --enable-sdl2 --enable-libwebp --enable-libx264 --enable-libx265 --enable-libxvid --enable-libaom --enable-libopenjpeg --enable-libvpx --enable-mediafoundation --enable-libass --enable-libfreetype --enable-libfribidi --enable-libharfbuzz --enable-libvidstab --enable-libvmaf --enable-libzimg --enable-amf --enable-cuda-llvm --enable-cuvid --enable-dxva2 --enable-d3d11va --enable-d3d12va --enable-ffnvcodec --enable-libvpl --enable-nvdec --enable-nvenc --enable-vaapi --enable-openal --enable-libgme --enable-libopenmpt --enable-libopencore-amrwb --enable-libmp3lame --enable-libtheora --enable-libvo-amrwbenc --enable-libgsm --enable-libopencore-amrnb --enable-libopus --enable-libspeex --enable-libvorbis --enable-librubberband
  libavutil      60.  8.100 / 60.  8.100
  libavcodec     62. 11.100 / 62. 11.100
  libavformat    62.  3.100 / 62.  3.100
  libavdevice    62.  1.100 / 62.  1.100
  libavfilter    11.  4.100 / 11.  4.100
  libswscale      9.  1.100 /  9.  1.100
  libswresample   6.  1.100 /  6.  1.100
Input #0, image2, from 'temp_frames\frame_%04d.png':
  Duration: 00:00:56.00, start: 0.000000, bitrate: N/A
  Stream #0:0: Video: png, rgba(pc, gbr/unknown/unknown), 1920x959, 10 fps, 10 tbr, 10 tbn
[mp3 @ 000001bef11030c0] Estimating duration from bitrate, this may be inaccurate
Input #1, mp3, from 'public/audio/vi_step0.mp3':
  Duration: 00:00:19.87, start: 0.000000, bitrate: 48 kb/s
  Stream #1:0: Audio: mp3 (mp3float), 24000 Hz, mono, fltp, 48 kb/s
[mp3 @ 000001bef1c75600] Estimating duration from bitrate, this may be inaccurate
Input #2, mp3, from 'public/audio/vi_step1.mp3':
  Duration: 00:00:19.20, start: 0.000000, bitrate: 48 kb/s
  Stream #2:0: Audio: mp3 (mp3float), 24000 Hz, mono, fltp, 48 kb/s
[mp3 @ 000001bef0fb9a40] Estimating duration from bitrate, this may be inaccurate
Input #3, mp3, from 'public/audio/vi_step2.mp3':
  Duration: 00:00:17.16, start: 0.000000, bitrate: 48 kb/s
  Stream #3:0: Audio: mp3 (mp3float), 24000 Hz, mono, fltp, 48 kb/s
[mp3 @ 000001bef0fd3c00] Estimating duration from bitrate, this may be inaccurate
Input #4, mp3, from 'public/audio/vi_step3.mp3':
  Duration: 00:00:16.75, start: 0.000000, bitrate: 48 kb/s
  Stream #4:0: Audio: mp3 (mp3float), 24000 Hz, mono, fltp, 48 kb/s
Stream mapping:
  Stream #1:0 (mp3float) -> adelay:default
  Stream #2:0 (mp3float) -> adelay:default
  Stream #3:0 (mp3float) -> adelay:default
  Stream #4:0 (mp3float) -> adelay:default
  Stream #0:0 -> #0:0 (png (native) -> h264 (libx264))
  amix:default -> Stream #0:1 (aac)
Press [q] to stop, [?] for help
[libx264 @ 000001bef1258940] using cpu capabilities: MMX2 SSE2Fast SSSE3 SSE4.2 AVX FMA3 BMI2 AVX2
[libx264 @ 000001bef1258940] profile High, level 4.0, 4:2:0, 8-bit
[libx264 @ 000001bef1258940] 264 - core 165 r3223 0480cb0 - H.264/MPEG-4 AVC codec - Copyleft 2003-2025 - http://www.videolan.org/x264.html - options: cabac=1 ref=3 deblock=1:0:0 analyse=0x3:0x113 me=hex subme=7 psy=1 psy_rd=1.00:0.00 mixed_ref=1 me_range=16 chroma_me=1 trellis=1 8x8dct=1 cqm=0 deadzone=21,11 fast_pskip=1 chroma_qp_offset=-2 threads=24 lookahead_threads=4 sliced_threads=0 nr=0 decimate=1 interlaced=0 bluray_compat=0 constrained_intra=0 bframes=3 b_pyramid=2 b_adapt=1 b_bias=0 direct=1 weightb=1 open_gop=0 weightp=2 keyint=250 keyint_min=10 scenecut=40 intra_refresh=0 rc_lookahead=40 rc=crf mbtree=1 crf=23.0 qcomp=0.60 qpmin=0 qpmax=69 qpstep=4 ip_ratio=1.40 aq=1:1.00
Output #0, mp4, to 'public/videos/demo.mp4':
  Metadata:
    encoder         : Lavf62.3.100
  Stream #0:0: Video: h264 (avc1 / 0x31637661), yuv420p(tv, progressive), 1920x958, q=2-31, 10 fps, 10240 tbn
    Metadata:
      encoder         : Lavc62.11.100 libx264
    Side data:
      cpb: bitrate max/min/avg: 0/0/0 buffer size: 0 vbv_delay: N/A
  Stream #0:1: Audio: aac (LC) (mp4a / 0x6134706D), 24000 Hz, mono, fltp, 69 kb/s
    Metadata:
      encoder         : Lavc62.11.100 aac
frame=    0 fps=0.0 q=0.0 size=       0KiB time=N/A bitrate=N/A speed=N/A elapsed=0:00:00.51    frame=   24 fps= 23 q=25.0 size=     256KiB time=00:00:02.20 bitrate= 953.4kbits/s speed=2.11x elapsed=0:00:01.04    frame=   69 fps= 45 q=25.0 size=     768KiB time=00:00:06.70 bitrate= 939.1kbits/s speed=4.33x elapsed=0:00:01.54    frame=  115 fps= 56 q=25.0 size=    1024KiB time=00:00:11.30 bitrate= 742.4kbits/s speed=5.48x elapsed=0:00:02.06    frame=  165 fps= 64 q=25.0 size=    1024KiB time=00:00:16.30 bitrate= 514.7kbits/s speed=6.32x elapsed=0:00:02.58    frame=  220 fps= 71 q=25.0 size=    1280KiB time=00:00:21.80 bitrate= 481.0kbits/s speed=7.05x elapsed=0:00:03.09    frame=  274 fps= 76 q=25.0 size=    1280KiB time=00:00:27.20 bitrate= 385.5kbits/s speed=7.54x elapsed=0:00:03.60    frame=  326 fps= 79 q=25.0 size=    1280KiB time=00:00:32.40 bitrate= 323.6kbits/s speed=7.85x elapsed=0:00:04.12    frame=  378 fps= 81 q=25.0 size=    1536KiB time=00:00:37.60 bitrate= 334.7kbits/s speed=8.09x elapsed=0:00:04.64    frame=  433 fps= 84 q=25.0 size=    2048KiB time=00:00:43.10 bitrate= 389.3kbits/s speed=8.35x elapsed=0:00:05.16    frame=  485 fps= 85 q=25.0 size=    2304KiB time=00:00:48.30 bitrate= 390.8kbits/s speed= 8.5x elapsed=0:00:05.68    frame=  547 fps= 88 q=25.0 size=    2560KiB time=00:00:54.50 bitrate= 384.8kbits/s speed= 8.8x elapsed=0:00:06.19    frame=  595 fps= 89 q=25.0 size=    2816KiB time=00:00:59.30 bitrate= 389.0kbits/s speed=8.85x elapsed=0:00:06.70    frame=  642 fps= 89 q=22.0 size=    3072KiB time=00:01:04.00 bitrate= 393.2kbits/s speed=8.85x elapsed=0:00:07.23    [out#0/mp4 @ 000001bef0f38080] video:4377KiB audio:159KiB subtitle:0KiB other streams:0KiB global headers:0KiB muxing overhead: 0.321976%
frame=  730 fps= 96 q=-1.0 Lsize=    4551KiB time=00:00:19.87 bitrate=1876.0kbits/s speed=2.62x elapsed=0:00:07.59    
[libx264 @ 000001bef1258940] frame I:15    Avg QP:10.54  size: 91094
[libx264 @ 000001bef1258940] frame P:231   Avg QP:18.52  size:  9966
[libx264 @ 000001bef1258940] frame B:484   Avg QP:21.79  size:  1681
[libx264 @ 000001bef1258940] consecutive B-frames:  7.4%  7.9% 14.0% 70.7%
[libx264 @ 000001bef1258940] mb I  I16..4: 67.0% 15.6% 17.4%
[libx264 @ 000001bef1258940] mb P  I16..4:  9.2%  2.5%  1.5%  P16..4:  4.3%  1.1%  0.7%  0.0%  0.0%    skip:80.7%
[libx264 @ 000001bef1258940] mb B  I16..4:  1.3%  0.5%  0.1%  B16..8:  6.7%  0.8%  0.1%  direct: 0.3%  skip:90.2%  L0:51.1% L1:46.6% BI: 2.2%
[libx264 @ 000001bef1258940] 8x8 transform intra:19.4% inter:68.1%
[libx264 @ 000001bef1258940] coded y,uvDC,uvAC intra: 18.1% 51.7% 16.0% inter: 1.0% 2.0% 0.3%
[libx264 @ 000001bef1258940] i16 v,h,dc,p: 54% 42%  3%  1%
[libx264 @ 000001bef1258940] i8 v,h,dc,ddl,ddr,vr,hd,vl,hu: 39% 34% 24%  1%  0%  0%  0%  0%  1%
[libx264 @ 000001bef1258940] i4 v,h,dc,ddl,ddr,vr,hd,vl,hu: 33% 29% 22%  2%  3%  3%  3%  2%  3%
[libx264 @ 000001bef1258940] i8c dc,h,v,p: 33% 38% 27%  2%
[libx264 @ 000001bef1258940] Weighted P-Frames: Y:2.2% UV:1.7%
[libx264 @ 000001bef1258940] ref P L0: 61.2%  6.8% 20.9% 11.0%  0.1%
[libx264 @ 000001bef1258940] ref B L0: 73.4% 21.8%  4.8%
[libx264 @ 000001bef1258940] ref B L1: 93.8%  6.2%
[libx264 @ 000001bef1258940] kb/s:491.16
[aac @ 000001bef126da80] Qavg: 8403.381
